<svg version="1.1" id="Layer_1" xmlns="http://www.w3.org/2000/svg" xmlns:xlink="http://www.w3.org/1999/xlink" x="0px" y="0px"
	 width="100%" viewBox="0 0 3719 839" enable-background="new 0 0 3719 839" xml:space="preserve">
<path fill="#FEFEFE" opacity="1.000000" stroke="none"
	d="
M630.871399,581.000122
	C630.871399,605.135193 630.871399,628.770264 630.871399,652.703003
	C606.333923,652.703003 582.079163,652.703003 557.408691,652.703003
	C557.408691,597.758606 557.408691,542.688110 557.408691,487.310150
	C510.434235,487.310150 463.873169,487.310150 416.866455,487.310150
	C416.866455,542.375427 416.866455,597.429138 416.866455,652.741333
	C392.171997,652.741333 367.920593,652.741333 343.375366,652.741333
	C343.375366,521.359314 343.375366,389.973755 343.375366,258.293030
	C367.604126,258.293030 391.861298,258.293030 416.534027,258.293030
	C416.534027,310.910217 416.534027,363.651886 416.534027,416.699005
	C463.510834,416.699005 510.074341,416.699005 557.073730,416.699005
	C557.073730,363.963043 557.073730,311.239777 557.073730,258.258301
	C581.760559,258.258301 606.014038,258.258301 630.871399,258.258301
	C630.871399,365.668365 630.871399,473.084198 630.871399,581.000122
z"/>
<path fill="#FEFEFE" opacity="1.000000" stroke="none"
	d="
M890.548340,649.564270
	C820.283386,678.625488 717.530457,649.951355 692.277893,549.662109
	C681.605591,507.277557 685.103088,465.676392 705.901978,426.702301
	C728.440857,384.467743 764.103455,359.920319 811.257874,352.023407
	C830.140076,348.861145 849.030823,349.002106 867.823303,352.634186
	C893.971191,357.687866 914.678345,371.585144 931.131165,392.217773
	C931.837463,393.103485 932.565002,393.972290 933.776184,395.452026
	C933.776184,382.440125 933.776184,370.082855 933.776184,357.362976
	C955.882324,357.362976 977.579529,357.362976 999.516174,357.362976
	C999.516174,455.795868 999.516174,554.175537 999.516174,652.778687
	C977.722717,652.778687 956.142395,652.778687 934.209167,652.778687
	C934.209167,640.587708 934.209167,628.508362 934.209167,615.131470
	C921.180969,629.567261 907.648682,641.583862 890.548340,649.564270
M768.001404,463.654846
	C759.875122,482.216644 757.054077,501.532227 759.863037,521.620422
	C764.006348,551.251038 778.736633,573.357239 806.187927,586.258118
	C825.418396,595.295715 845.717590,596.306274 866.205444,592.763794
	C884.419556,589.614380 900.382690,581.535461 911.689209,566.388855
	C930.412659,541.306213 935.851440,513.181213 929.071472,482.775238
	C917.959290,432.940521 873.306946,407.735748 825.543213,417.580353
	C799.027832,423.045441 780.316833,438.917419 768.001404,463.654846
z"/>
<path fill="#FEFEFE" opacity="1.000000" stroke="none"
	d="
M1729.121826,637.880310
	C1691.005371,613.019531 1669.652954,577.795227 1663.091064,533.556458
	C1656.612427,489.879425 1663.480103,448.641235 1688.938110,411.783875
	C1712.149292,378.179443 1744.616333,358.745331 1784.787109,352.057617
	C1803.828979,348.887512 1822.887695,348.963745 1841.851318,352.639618
	C1867.999756,357.708221 1888.701294,371.606384 1905.149292,392.242798
	C1905.851562,393.123932 1906.571045,393.991150 1907.801392,395.501892
	C1907.801392,382.423492 1907.801392,370.062866 1907.801392,357.351532
	C1929.904541,357.351532 1951.601318,357.351532 1973.514893,357.351532
	C1973.514893,455.823822 1973.514893,554.205505 1973.514893,652.794617
	C1951.694824,652.794617 1930.113281,652.794617 1908.174316,652.794617
	C1908.174316,640.559204 1908.174316,628.484802 1908.174316,616.923828
	C1905.560303,619.122192 1902.626709,621.183472 1900.176270,623.712891
	C1876.603638,648.046509 1847.928467,659.764282 1814.052979,660.109375
	C1783.716919,660.418335 1755.400635,654.022705 1729.121826,637.880310
M1738.320923,472.973114
	C1733.197266,488.880249 1731.487671,505.095093 1733.855347,521.694153
	C1738.079224,551.305725 1752.780396,573.405945 1780.250366,586.280823
	C1799.491211,595.299011 1819.783691,596.312134 1840.267334,592.747925
	C1858.658691,589.547729 1874.622437,581.274109 1886.041870,565.952271
	C1902.561646,543.786987 1908.447632,518.744934 1904.756104,491.519806
	C1902.050415,471.564880 1894.303345,453.779907 1879.745728,439.482422
	C1861.296143,421.362457 1838.795044,414.549225 1813.293213,415.720367
	C1778.965210,417.296844 1749.289795,439.587799 1738.320923,472.973114
z"/>
<path fill="#FFFFFF" opacity="1.000000" stroke="none"
	d="
M2461.062012,576.000000
	C2461.062012,601.811096 2461.062012,627.122131 2461.062012,652.716553
	C2437.429688,652.716553 2414.014893,652.716553 2389.999756,652.716553
	C2389.999756,651.054321 2389.999756,649.292603 2389.999756,647.530945
	C2389.999756,600.197693 2390.159424,552.863647 2389.919678,505.531555
	C2389.826416,487.081787 2389.393311,468.558655 2383.604004,450.733429
	C2376.373535,428.471039 2361.774658,417.199646 2338.401855,416.018433
	C2321.281006,415.153137 2305.316162,418.396484 2291.881348,430.033752
	C2279.626709,440.648987 2273.729004,454.540863 2272.073242,470.165314
	C2270.725342,482.886536 2270.116943,495.736938 2270.053223,508.534393
	C2269.823730,554.699890 2269.963379,600.867126 2269.963135,647.033752
	C2269.963135,648.841553 2269.962891,650.649353 2269.962891,652.723938
	C2246.125244,652.723938 2222.557373,652.723938 2198.792236,652.723938
	C2198.792236,521.323181 2198.792236,390.042297 2198.792236,258.380402
	C2222.245605,258.380402 2245.789062,258.380402 2269.763184,258.380402
	C2269.763184,297.581360 2269.763184,336.978271 2269.763184,377.313354
	C2273.394531,374.473450 2276.277100,372.129120 2279.251465,369.908142
	C2294.852295,358.258911 2312.540039,351.894928 2331.802002,350.404968
	C2356.527832,348.492340 2380.674805,351.095886 2403.104980,362.689728
	C2434.361572,378.845825 2452.039551,405.201813 2457.614014,439.281891
	C2460.310547,455.768036 2460.629395,472.733948 2460.923340,489.501984
	C2461.426025,518.159973 2461.062012,546.833191 2461.062012,576.000000
z"/>
<path fill="#FEFEFE" opacity="1.000000" stroke="none"
	d="
M1426.000000,257.999084
	C1436.831299,258.007690 1447.162476,258.014282 1457.493774,258.034668
	C1457.801880,258.035278 1458.109741,258.180939 1458.862915,258.371765
	C1458.862915,336.968567 1458.862915,415.668854 1458.862915,494.369141
	C1459.159058,494.471069 1459.455078,494.572968 1459.751221,494.674896
	C1466.872314,484.188293 1474.001221,473.707031 1481.113159,463.214203
	C1504.354248,428.924530 1527.560303,394.611084 1550.917480,360.400696
	C1552.007690,358.803680 1554.416992,357.156647 1556.224609,357.142670
	C1582.885132,356.936584 1609.547607,357.002655 1636.209717,357.013977
	C1636.670776,357.014160 1637.131958,357.135071 1638.306885,357.299652
	C1603.086182,405.546600 1568.110718,453.457550 1532.831299,501.784851
	C1573.517334,551.887329 1614.269653,602.071411 1655.626709,653.000122
	C1653.928955,653.000122 1653.172241,653.000061 1652.415527,653.000061
	C1622.587280,653.000305 1592.758789,653.054565 1562.931641,652.872437
	C1561.056152,652.860962 1558.546631,651.476501 1557.416260,649.935486
	C1525.818726,606.854431 1494.361938,563.670227 1462.878540,520.505432
	C1461.850220,519.095520 1460.787842,517.710510 1459.181641,515.567078
	C1459.181641,561.765686 1459.181641,607.002930 1459.181641,652.620361
	C1435.351440,652.620361 1411.800781,652.620361 1387.921753,652.620361
	C1387.921753,521.386658 1387.921753,390.010406 1387.921753,257.999084
	C1400.308228,257.999084 1412.904175,257.999084 1426.000000,257.999084
z"/>
<path fill="#FEFEFE" opacity="1.000000" stroke="none"
	d="
M2762.696777,384.309143
	C2794.642090,410.644257 2813.055664,444.043488 2819.124268,484.661346
	C2830.684814,562.035645 2780.104980,633.542542 2707.218018,653.658386
	C2646.549805,670.401855 2592.739990,656.064819 2548.577148,610.984802
	C2516.333252,578.071411 2502.424072,537.362061 2506.490234,491.562256
	C2512.626953,422.438141 2563.773193,366.165466 2631.828613,353.055115
	C2679.778809,343.817810 2723.540771,354.162689 2762.696777,384.309143
M2747.039795,486.764862
	C2743.115967,476.784607 2740.359619,466.133026 2735.071777,456.937195
	C2708.511475,410.749603 2645.718262,401.598022 2606.707275,437.743256
	C2574.715576,467.384857 2568.545166,515.600220 2591.815430,554.107361
	C2620.921875,602.272217 2688.030029,608.555420 2725.360596,566.455017
	C2745.433105,543.817749 2751.884277,517.223572 2747.039795,486.764862
z"/>
<path fill="#FEFEFE" opacity="1.000000" stroke="none"
	d="
M2860.593994,539.999756
	C2860.600586,479.172272 2860.607178,418.844849 2860.619629,358.517426
	C2860.619629,358.190399 2860.704834,357.863373 2860.787598,357.267639
	C2882.532715,357.267639 2904.314697,357.267639 2926.526855,357.267639
	C2926.526855,365.879120 2926.526855,374.626221 2926.526855,384.519196
	C2928.343994,383.007629 2929.434570,382.227600 2930.377197,381.297577
	C2957.437012,354.593170 2990.313965,346.601135 3027.167480,350.838715
	C3048.969727,353.345642 3068.948975,360.186920 3085.844238,374.527222
	C3105.058838,390.836151 3116.126221,411.959930 3119.723389,436.623291
	C3122.022705,452.386261 3123.490234,468.405396 3123.626953,484.324341
	C3124.101807,539.648376 3123.833496,594.978760 3123.843994,650.306763
	C3123.844238,650.960938 3123.790283,651.615112 3123.745361,652.633667
	C3099.989990,652.633667 3076.300049,652.633667 3052.197754,652.633667
	C3052.197754,650.728882 3052.197754,648.936340 3052.197510,647.143738
	C3052.188232,598.981689 3052.497070,550.816345 3051.983887,502.659637
	C3051.821777,487.432281 3050.570557,472.028381 3047.866699,457.057648
	C3043.084961,430.583923 3026.531250,416.994476 2999.422607,415.707794
	C2974.009521,414.501587 2953.963867,423.913177 2941.440186,446.782227
	C2935.324463,457.949493 2933.174316,470.372192 2933.037598,482.856018
	C2932.442627,537.171631 2932.281738,591.492004 2931.965576,645.810669
	C2931.952881,647.969910 2931.964111,650.129211 2931.964111,652.644836
	C2908.299316,652.644836 2884.743896,652.644836 2860.593994,652.644836
	C2860.593994,615.319397 2860.593994,577.909546 2860.593994,539.999756
z"/>
<path fill="#FEFEFE" opacity="1.000000" stroke="none"
	d="
M1053.656006,437.682159
	C1081.652344,379.140411 1141.451904,344.534851 1209.181763,350.448212
	C1274.882812,356.184448 1328.238281,398.484467 1343.816040,455.750671
	C1342.672119,455.820496 1341.609131,455.941498 1340.546021,455.941986
	C1316.216064,455.952698 1291.885864,455.906250 1267.556396,456.010437
	C1264.753906,456.022430 1263.185425,455.252350 1261.733398,452.710144
	C1246.387085,425.841400 1222.640625,414.585754 1192.304565,415.599304
	C1163.966919,416.546082 1141.136108,427.861664 1125.481079,451.804901
	C1112.689575,471.368652 1109.076660,493.213989 1111.591919,516.230591
	C1114.053955,538.757751 1123.168701,558.005981 1139.953247,573.410278
	C1167.669312,598.847168 1214.072510,602.131042 1242.030884,579.937866
	C1249.467285,574.034851 1255.047119,565.812683 1261.625854,558.792542
	C1262.937500,557.392883 1264.909546,555.705444 1266.588501,555.692871
	C1291.916748,555.503967 1317.246826,555.571960 1342.576538,555.594238
	C1342.875000,555.594543 1343.173218,555.787109 1344.857910,556.367920
	C1338.847046,567.926208 1333.679199,579.765991 1326.882202,590.581970
	C1305.150879,625.163208 1274.283203,647.443176 1234.219849,656.185181
	C1149.549561,674.660461 1069.782959,627.852295 1045.863770,550.770874
	C1033.939941,512.345459 1037.019897,474.659729 1053.656006,437.682159
z"/>
<path fill="#FEFEFE" opacity="1.000000" stroke="none"
	d="
M3224.218994,531.196777
	C3253.888672,451.576691 3283.447510,372.331543 3312.999512,293.083801
	C3320.454102,273.093323 3327.885986,253.094223 3335.310059,233.147095
	C3360.021240,233.147095 3384.315430,233.147095 3409.041748,233.147095
	C3403.502930,247.980927 3398.056152,262.541138 3392.628418,277.108398
	C3339.403076,419.955627 3286.178955,562.803345 3232.961670,705.653564
	C3229.109863,715.992615 3229.134766,716.001831 3218.302734,716.001831
	C3199.137207,716.001831 3179.971680,716.001831 3160.806152,716.001831
	C3159.183350,716.001831 3157.560547,716.001892 3155.334961,716.001892
	C3178.383789,654.189270 3201.244873,592.880127 3224.218994,531.196777
z"/>
<path fill="#FDFDFD" opacity="1.000000" stroke="none"
	d="
M2037.961182,356.997101
	C2040.912354,356.997101 2043.369629,356.997101 2046.091797,356.997101
	C2046.091797,323.956482 2046.091797,291.350067 2046.091797,258.370880
	C2070.050293,258.370880 2093.739746,258.370880 2117.680420,258.370880
	C2117.680420,291.093536 2117.680420,323.713715 2117.680420,356.855927
	C2131.978760,356.855927 2146.043701,356.855927 2160.334473,356.855927
	C2160.334473,378.646851 2160.334473,399.916168 2160.334473,421.613892
	C2146.339111,421.613892 2132.437500,421.613892 2118.118164,421.613892
	C2118.118164,498.768951 2118.118164,575.498901 2118.118164,652.615601
	C2094.010742,652.615601 2070.320068,652.615601 2046.215820,652.615601
	C2046.215820,575.818604 2046.215820,499.080780 2046.215820,421.936218
	C2034.559082,421.936218 2023.303467,421.936218 2011.786987,421.936218
	C2011.786987,400.108185 2011.786987,378.687958 2011.786987,356.997101
	C2020.497559,356.997101 2028.982422,356.997101 2037.961182,356.997101
z"/>
<path fill="#FDFDFD" opacity="1.000000" stroke="none"
	d="
M3439.271973,383.999573
	C3439.271973,369.873932 3439.271973,356.248199 3439.271973,341.875000
	C3447.052490,345.316315 3454.284424,348.503052 3461.506836,351.711426
	C3543.552002,388.157623 3625.585938,424.628235 3707.676025,460.972748
	C3710.707031,462.314758 3711.914551,463.667694 3711.862305,467.104706
	C3711.640137,481.764893 3711.675781,496.431488 3711.842285,511.093170
	C3711.877197,514.181335 3711.025391,515.744995 3708.092773,517.037903
	C3619.884277,555.927551 3531.722168,594.922302 3443.547363,633.888855
	C3442.376709,634.406189 3441.140381,634.773926 3439.271973,635.451965
	C3439.271973,628.494202 3439.272217,622.076599 3439.272217,615.658997
	C3439.272217,603.161621 3439.460938,590.659668 3439.158447,578.169617
	C3439.065674,574.345642 3440.443848,572.684265 3443.722412,571.186462
	C3501.239990,544.909119 3558.706299,518.519226 3616.180908,492.148224
	C3617.827637,491.392700 3619.446533,490.576813 3621.579834,489.547119
	C3600.068115,479.544128 3579.047852,469.764679 3558.023438,459.994324
	C3519.791992,442.227783 3481.572021,424.436584 3443.297852,406.762360
	C3440.368408,405.409607 3438.933838,403.969025 3439.175293,400.490265
	C3439.544189,395.183411 3439.271973,389.832001 3439.271973,383.999573
z"/>
<path fill="#FEFEFE" opacity="1.000000" stroke="none"
	d="
M94.506226,426.543762
	C158.044785,398.309845 221.258728,370.274933 284.998932,342.006653
	C284.998932,358.835266 284.193726,375.161957 285.285004,391.360870
	C285.999969,401.973816 282.309753,406.645203 272.735931,410.933228
	C217.155975,435.826843 161.948990,461.553192 106.619141,487.005035
	C105.725479,487.416107 104.873474,487.917755 103.567894,488.605988
	C120.856384,496.669220 137.808411,504.578400 154.762909,512.482361
	C196.734436,532.048828 238.685196,551.660400 280.720123,571.089722
	C284.142761,572.671814 285.133636,574.507874 285.093842,578.166992
	C284.889069,596.987061 284.998932,615.810608 284.998932,635.320007
	C283.215637,634.666199 281.740540,634.217896 280.340851,633.598999
	C192.630905,594.821899 104.935204,556.012512 17.190237,517.314880
	C14.009223,515.911987 12.889393,514.303650 12.941820,510.793671
	C13.163255,495.968781 13.120260,481.137756 12.960230,466.311310
	C12.930202,463.529205 13.822016,462.252869 16.319794,461.157196
	C42.305679,449.758575 68.235916,438.233063 94.506226,426.543762
z"/>
<path fill="#00CC00" opacity="1.000000" stroke="none"
	d="
M1325.000000,716.000000
	C1325.000000,706.212219 1325.000000,696.924438 1325.000000,687.320923
	C1348.407349,687.320923 1371.425537,687.320923 1394.722412,687.320923
	C1394.722412,709.709656 1394.722412,731.944824 1394.722412,754.590515
	C1371.773193,754.590515 1348.753784,754.590515 1325.000000,754.590515
	C1325.000000,741.975708 1325.000000,729.237854 1325.000000,716.000000
z"/>
<path fill="#00CC00" opacity="1.000000" stroke="none"
	d="
M1856.981934,752.730347
	C1856.168457,753.798279 1855.370361,754.907959 1854.567505,754.911316
	C1832.286621,755.004944 1810.005127,754.986328 1787.362549,754.986328
	C1787.362549,732.340027 1787.362549,709.984192 1787.362549,687.313171
	C1810.426392,687.313171 1833.447876,687.313171 1856.995239,687.313171
	C1856.995239,709.084412 1856.995239,730.670471 1856.981934,752.730347
z"/>
<path fill="#00CC00" opacity="1.000000" stroke="none"
	d="
M1633.000000,820.955688
	C1633.000000,801.188843 1633.000000,781.916626 1633.000000,762.323486
	C1656.402832,762.323486 1679.421753,762.323486 1702.720947,762.323486
	C1702.720947,784.707153 1702.720947,806.942932 1702.720947,829.589905
	C1679.773804,829.589905 1656.753784,829.589905 1633.000000,829.589905
	C1633.000000,826.964844 1633.000000,824.207581 1633.000000,820.955688
z"/>
<path fill="#00CC00" opacity="1.000000" stroke="none"
	d="
M1626.000000,715.000000
	C1626.000000,728.449707 1626.000000,741.399353 1626.000000,754.672791
	C1602.605469,754.672791 1579.587158,754.672791 1556.283813,754.672791
	C1556.283813,732.303040 1556.283813,710.067810 1556.283813,687.415771
	C1579.214111,687.415771 1602.233643,687.415771 1626.000000,687.415771
	C1626.000000,696.345215 1626.000000,705.422607 1626.000000,715.000000
z"/>
<path fill="#00CC00" opacity="1.000000" stroke="none"
	d="
M1765.993164,11.000336
	C1770.786743,11.000336 1775.082275,11.000336 1779.684570,11.000336
	C1779.684570,33.752769 1779.684570,56.105347 1779.684570,78.729309
	C1756.609985,78.729309 1733.708740,78.729309 1710.403320,78.729309
	C1710.403320,56.426464 1710.403320,34.072811 1710.403320,11.000336
	C1728.702515,11.000336 1747.098755,11.000336 1765.993164,11.000336
z"/>
<path fill="#00CC00" opacity="1.000000" stroke="none"
	d="
M2088.000000,43.000000
	C2088.000000,55.118011 2088.000000,66.736023 2088.000000,78.674889
	C2064.600586,78.674889 2041.582397,78.674889 2018.281494,78.674889
	C2018.281494,56.298428 2018.281494,34.063225 2018.281494,11.413629
	C2041.218506,11.413629 2064.238037,11.413629 2088.000000,11.413629
	C2088.000000,21.683432 2088.000000,32.091717 2088.000000,43.000000
z"/>
<path fill="#00CC00" opacity="1.000000" stroke="none"
	d="
M1736.000000,304.999878
	C1727.210815,304.999878 1718.921753,304.999878 1710.319214,304.999878
	C1710.319214,282.255157 1710.319214,259.902802 1710.319214,237.274780
	C1733.381348,237.274780 1756.282471,237.274780 1779.592285,237.274780
	C1779.592285,259.564148 1779.592285,281.917664 1779.592285,304.999878
	C1765.303345,304.999878 1750.901611,304.999878 1736.000000,304.999878
z"/>
<path fill="#24FF24" opacity="1.000000" stroke="none"
	d="
M1550.000000,296.940369
	C1550.000000,299.739502 1550.000000,302.048309 1550.000000,304.677124
	C1526.652954,304.677124 1503.604248,304.677124 1480.276978,304.677124
	C1480.276978,282.226807 1480.276978,259.844635 1480.276978,237.231140
	C1503.413086,237.231140 1526.344116,237.231140 1550.000000,237.231140
	C1550.000000,256.958679 1550.000000,276.704315 1550.000000,296.940369
z"/>
<path fill="#24FF24" opacity="1.000000" stroke="none"
	d="
M1864.000000,143.968506
	C1864.000000,124.513206 1864.000000,105.551979 1864.000000,86.296616
	C1887.399658,86.296616 1910.447998,86.296616 1933.748535,86.296616
	C1933.748535,108.704796 1933.748535,130.969177 1933.748535,153.617065
	C1910.776123,153.617065 1887.726807,153.617065 1864.000000,153.617065
	C1864.000000,150.659897 1864.000000,147.561249 1864.000000,143.968506
z"/>
<path fill="#00CC00" opacity="1.000000" stroke="none"
	d="
M1626.000000,200.000000
	C1626.000000,209.787811 1626.000000,219.075607 1626.000000,228.678955
	C1602.592773,228.678955 1579.574463,228.678955 1556.277588,228.678955
	C1556.277588,206.290344 1556.277588,184.055161 1556.277588,161.409576
	C1579.226685,161.409576 1602.246216,161.409576 1626.000000,161.409576
	C1626.000000,174.024277 1626.000000,186.762146 1626.000000,200.000000
z"/>
<path fill="#24FF24" opacity="1.000000" stroke="none"
	d="
M1778.712891,161.077759
	C1779.451416,161.705750 1779.947144,162.275421 1779.948120,162.845978
	C1779.987427,184.658768 1779.981567,206.471649 1779.981567,228.641785
	C1756.723267,228.641785 1733.672241,228.641785 1710.309570,228.641785
	C1710.309570,206.291382 1710.309570,183.907364 1710.309570,161.019852
	C1733.026245,161.019852 1755.632935,161.019852 1778.712891,161.077759
z"/>
<path fill="#00B400" opacity="1.000000" stroke="none"
	d="
M1787.000000,168.085632
	C1787.000000,165.626297 1787.000000,163.655579 1787.000000,161.344208
	C1810.301514,161.344208 1833.219604,161.344208 1856.569580,161.344208
	C1856.569580,183.578247 1856.569580,205.947861 1856.569580,228.659973
	C1833.690674,228.659973 1810.772461,228.659973 1787.000000,228.659973
	C1787.000000,208.717682 1787.000000,188.645966 1787.000000,168.085632
z"/>
<path fill="#00B400" opacity="1.000000" stroke="none"
	d="
M1616.954956,529.000000
	C1599.630493,529.000000 1582.800537,529.007019 1565.970581,528.995911
	C1560.588989,528.992371 1556.047363,524.540283 1556.019653,519.062317
	C1555.957275,506.731781 1555.894043,494.398956 1556.101074,482.071564
	C1556.136841,479.937714 1557.321777,477.743195 1558.275757,475.717834
	C1564.057861,463.440765 1573.386597,459.203217 1587.061646,460.704529
	C1599.700562,462.092072 1612.611694,461.000000 1625.698608,461.000000
	C1625.698608,483.721313 1625.698608,505.973297 1625.698608,529.000000
	C1622.963867,529.000000 1620.206665,529.000000 1616.954956,529.000000
z"/>
<path fill="#00B400" opacity="1.000000" stroke="none"
	d="
M1509.000000,679.000000
	C1499.205688,679.000000 1489.911377,679.000000 1480.312012,679.000000
	C1480.312012,656.302429 1480.312012,634.051941 1480.312012,611.000000
	C1484.174805,611.000000 1488.092651,611.000000 1492.010498,611.000000
	C1500.674561,611.000000 1509.343262,611.165039 1518.000122,610.914795
	C1521.242188,610.821045 1523.138062,611.955933 1524.982544,614.497009
	C1532.707886,625.141235 1540.666626,635.615784 1548.449219,646.219055
	C1549.270874,647.338318 1549.912354,648.889648 1549.931030,650.250244
	C1550.058960,659.565735 1549.998169,668.883911 1549.998169,679.000000
	C1536.327393,679.000000 1522.913696,679.000000 1509.000000,679.000000
z"/>
<path fill="#24FE24" opacity="1.000000" stroke="none"
	d="
M1633.003296,614.685303
	C1633.947632,613.504639 1634.885376,612.103333 1635.833252,612.096436
	C1653.826660,611.966248 1671.821655,611.952271 1689.814941,612.096008
	C1691.195557,612.107056 1692.690918,613.307007 1693.920044,614.235962
	C1701.963989,620.315369 1703.768921,628.445068 1703.199341,638.252869
	C1702.408813,651.864624 1703.000610,665.556702 1703.000610,679.607422
	C1679.797729,679.607422 1656.746338,679.607422 1633.346191,679.607422
	C1633.346191,672.371033 1633.346191,664.982483 1633.346191,656.881165
	C1639.110596,656.881165 1644.899414,657.157349 1650.642212,656.762878
	C1653.449097,656.569946 1656.170044,655.128479 1658.929810,654.252075
	C1657.882935,651.402039 1657.427002,648.109619 1655.683960,645.780762
	C1649.100220,636.984741 1642.057129,628.533936 1635.296265,619.867859
	C1634.238403,618.511780 1633.752075,616.709656 1633.003296,614.685303
z"/>
<path fill="#00CC00" opacity="1.000000" stroke="none"
	d="
M1337.015747,378.999878
	C1332.888550,378.999878 1329.257690,378.999878 1325.318604,378.999878
	C1325.318604,356.255890 1325.318604,333.905579 1325.318604,311.277130
	C1344.379028,311.277130 1363.282959,311.277130 1382.594116,311.277130
	C1382.594116,333.566040 1382.594116,355.917511 1382.594116,378.999878
	C1367.642456,378.999878 1352.577271,378.999878 1337.015747,378.999878
z"/>
<path fill="#00B400" opacity="1.000000" stroke="none"
	d="
M1625.996582,349.792908
	C1625.014893,351.223083 1624.041870,352.997040 1623.056274,353.004059
	C1600.946045,353.161682 1578.834473,353.125000 1556.362305,353.125000
	C1556.362305,339.093506 1556.362305,325.382172 1556.362305,311.333923
	C1579.420898,311.333923 1602.435547,311.333923 1625.999146,311.333923
	C1625.999146,324.117126 1625.999146,336.715393 1625.996582,349.792908
z"/>
<path fill="#24FE24" opacity="1.000000" stroke="none"
	d="
M1710.998169,637.375183
	C1710.998169,635.324829 1710.998169,633.718933 1710.998169,631.291687
	C1731.928955,647.905029 1755.202148,657.444458 1780.711426,662.564270
	C1780.711426,668.161377 1780.711426,673.752014 1780.711426,679.675232
	C1757.663574,679.675232 1734.613892,679.675232 1710.998169,679.675232
	C1710.998169,665.692261 1710.998169,651.755920 1710.998169,637.375183
z"/>
<path fill="#00B400" opacity="1.000000" stroke="none"
	d="
M1462.997559,647.683472
	C1462.999634,635.744629 1462.999634,624.268799 1462.999634,612.397644
	C1466.311401,612.397644 1469.346436,612.397644 1472.697998,612.397644
	C1472.697998,634.701294 1472.697998,656.946533 1472.697998,679.596558
	C1449.708984,679.596558 1426.681519,679.596558 1403.325928,679.596558
	C1403.325928,672.333618 1403.325928,665.081360 1403.325928,657.000000
	C1404.985962,657.000000 1406.730713,657.000061 1408.475586,657.000061
	C1423.464111,657.000000 1438.452881,657.036987 1453.441284,656.984375
	C1461.219238,656.957092 1462.287842,655.894958 1462.997559,647.683472
z"/>
<path fill="#51EC51" opacity="1.000000" stroke="none"
	d="
M1625.926147,538.289795
	C1625.983398,560.702332 1625.983398,582.639648 1625.983398,605.547363
	C1624.236206,604.621094 1622.746094,604.291016 1621.989990,603.363037
	C1604.264526,581.607544 1586.618652,559.787170 1568.619995,537.561401
	C1569.679443,537.291565 1570.234741,537.027222 1570.790283,537.026428
	C1588.083496,537.001282 1605.376831,536.987427 1622.669922,537.033508
	C1623.736938,537.036316 1624.802612,537.542603 1625.926147,538.289795
z"/>
<path fill="#24FD24" opacity="1.000000" stroke="none"
	d="
M1624.451782,387.041626
	C1625.243652,387.843048 1625.948608,388.628906 1625.950806,389.416687
	C1626.010498,411.027771 1625.998657,432.639008 1625.998657,454.626221
	C1608.682739,454.626221 1591.552612,454.626221 1573.729736,454.626221
	C1579.434448,446.738922 1584.831787,439.243042 1590.264404,431.772827
	C1600.236206,418.060883 1610.206665,404.347839 1620.246216,390.685577
	C1621.271240,389.290619 1622.762573,388.238251 1624.451782,387.041626
z"/>
<path fill="#00CB00" opacity="1.000000" stroke="none"
	d="
M1646.977905,529.001404
	C1642.193970,529.001404 1637.904053,529.001404 1633.311035,529.001404
	C1633.311035,506.258881 1633.311035,483.923218 1633.311035,461.292358
	C1642.496948,461.292358 1651.554443,461.292358 1661.337769,461.292358
	C1656.169312,483.597809 1656.352905,506.021301 1657.686157,529.001404
	C1654.044434,529.001404 1650.758179,529.001404 1646.977905,529.001404
z"/>
<path fill="#51EB51" opacity="1.000000" stroke="none"
	d="
M1512.982666,386.996918
	C1517.473877,386.996918 1521.468628,386.996918 1526.541992,386.996918
	C1511.040649,409.915985 1495.953735,432.222382 1480.274902,455.404022
	C1480.274902,432.113922 1480.274902,409.906677 1480.274902,386.996918
	C1490.976807,386.996918 1501.731445,386.996918 1512.982666,386.996918
z"/>
<path fill="#00B200" opacity="1.000000" stroke="none"
	d="
M1479.996826,588.997314
	C1480.000244,577.701355 1480.002319,566.904602 1480.013550,556.107849
	C1480.013916,555.786255 1480.110474,555.464783 1480.327271,554.119324
	C1492.873535,571.111694 1504.988403,587.519592 1517.608154,604.611450
	C1504.737915,604.611450 1492.754150,604.611450 1479.996826,604.611450
	C1479.996826,599.649048 1479.996826,594.572754 1479.996826,588.997314
z"/>
<path fill="#00C800" opacity="1.000000" stroke="none"
	d="
M1463.008423,463.281128
	C1465.695557,461.980469 1468.370239,461.149200 1471.087158,460.304840
	C1472.857056,468.137604 1471.678711,470.802246 1462.996094,479.006287
	C1462.996094,473.398834 1462.996094,468.574646 1463.008423,463.281128
z"/>
<path fill="#24FE24" opacity="1.000000" stroke="none"
	d="
M1743.134521,472.200256
	C1747.626343,460.999908 1747.626343,460.999908 1759.438232,460.999908
	C1766.076050,460.999908 1772.713867,460.999908 1779.674561,460.999908
	C1779.674561,483.665955 1779.674561,506.040070 1779.674561,528.707886
	C1766.398682,528.707886 1753.154175,528.707886 1739.392700,528.707886
	C1735.045776,509.691803 1736.727539,491.006256 1743.134521,472.200256
z"/>
<path fill="#00CA00" opacity="1.000000" stroke="none"
	d="
M1748.166992,536.998230
	C1758.909912,536.998230 1769.176636,536.998230 1779.718750,536.998230
	C1779.718750,551.813171 1779.718750,566.160645 1779.718750,581.170471
	C1760.675781,571.726257 1748.374878,557.272217 1741.558228,536.998230
	C1744.101440,536.998230 1745.895996,536.998230 1748.166992,536.998230
z"/>
<path fill="#00C900" opacity="1.000000" stroke="none"
	d="
M1780.005371,437.115234
	C1780.005371,443.208435 1780.005371,448.817139 1780.005371,454.711029
	C1770.542725,454.711029 1761.524414,454.711029 1751.839600,454.711029
	C1758.627563,443.408752 1767.644897,435.386200 1780.005371,429.170990
	C1780.005371,432.222198 1780.005371,434.426483 1780.005371,437.115234
z"/>
</svg>
